<svg class="icon" style="width:100%; height:100%;vertical-align: middle;fill:#999999;overflow: hidden;" viewBox="0 0 1024 1024" version="1.1" xmlns="http://www.w3.org/2000/svg"><path d="M508.203022 694.557826c-2.410909-0.435928-4.850471-0.75827-7.229658-1.328252-6.246261-1.496074-11.69332-4.51585-16.376992-8.908903a81.765235 81.765235 0 0 1-1.930979-1.882884c-88.203878-88.200808-176.394453-176.415942-264.630053-264.587074-8.194636-8.188496-12.307304-17.844413-11.914354-29.444612 0.689708-20.277836 19.520589-36.937261 39.711444-35.226293 9.856485 0.833995 18.009166 4.888334 24.965601 11.851932 79.32772 79.384002 158.693302 158.729118 238.044558 238.090607 0.580215 0.580215 1.090844 1.231037 2.366907 2.682086 0.717338-1.175779 1.111311-2.225691 1.832741-2.947122 79.385025-79.432097 158.807912-158.826332 238.176565-238.275825 6.573719-6.580882 14.065344-11.06808 23.389709-12.228509 0.210801-0.025583 0.401136-0.211824 0.601704-0.322342h8.090259c0.413416 0.137123 0.816598 0.340761 1.241271 0.40216 14.835893 2.139733 26.865881 12.786211 30.713512 27.230178 0.49528 1.861394 0.874927 3.753487 1.308809 5.631254v8.091282c-0.104377 0.193405-0.277316 0.378623-0.302899 0.581238-1.162476 9.404184-5.692652 16.95516-12.357446 23.551392-17.352203 17.168008-34.552957 34.490535-51.814086 51.751664-70.631664 70.632687-141.268444 141.261281-211.884758 211.909318-3.9121 3.914146-8.169053 7.363711-13.395078 9.204639-4.754281 1.675152-9.700943 2.803859-14.562671 4.173042l-4.044106 0.001024z" fill="" /></svg>