<svg class="icon" style="width:100%; height:100%;vertical-align: middle;fill:#999999;overflow: hidden;" viewBox="0 0 1024 1024" version="1.1" xmlns="http://www.w3.org/2000/svg"><path d="M682.592818 526.421454c-0.435928 2.410909-0.75827 4.850471-1.328251 7.229659-1.496074 6.246261-4.51585 11.69332-8.908904 16.376992a81.765235 81.765235 0 0 1-1.882884 1.930979c-88.200808 88.203878-176.415942 176.394453-264.587074 264.630053-8.188496 8.194636-17.844413 12.307304-29.444612 11.914354-20.277836-0.689708-36.936237-19.520589-35.226293-39.711444 0.835018-9.856485 4.889357-18.009166 11.851933-24.965601 79.385025-79.32772 158.729118-158.693302 238.090606-238.044558 0.580215-0.580215 1.231037-1.090844 2.682086-2.366907-1.175779-0.717338-2.225691-1.111311-2.947122-1.832742-79.432097-79.386048-158.825308-158.808936-238.275825-238.176564-6.580882-6.573719-11.06808-14.066367-12.228509-23.38971-0.025583-0.210801-0.211824-0.401136-0.322341-0.601704v-8.091282c0.137123-0.413416 0.340761-0.816598 0.402159-1.240247 2.139733-14.836917 12.786211-26.865881 27.230178-30.713512 1.861394-0.49528 3.753487-0.874927 5.631254-1.308809h8.091282c0.193405 0.104377 0.379647 0.277316 0.582261 0.302899 9.404184 1.162476 16.95516 5.692652 23.550369 12.358469 17.169031 17.352203 34.491559 34.551934 51.752688 51.813062C527.938506 353.166505 598.566076 423.803285 669.215136 494.4196c3.914146 3.9121 7.363711 8.169053 9.204639 13.395078 1.675152 4.754281 2.803859 9.700943 4.173043 14.563693v4.043083z" fill="" /></svg>